<svg xmlns="http://www.w3.org/2000/svg" viewBox="0 0 512 512">
  <rect width="512" height="512" fill="#0a0a0a"/>

  <!-- Chess board pattern -->
  <g opacity="0.3">
    <rect x="128" y="128" width="64" height="64" fill="#2a2a2a"/>
    <rect x="256" y="128" width="64" height="64" fill="#2a2a2a"/>
    <rect x="192" y="192" width="64" height="64" fill="#2a2a2a"/>
    <rect x="320" y="192" width="64" height="64" fill="#2a2a2a"/>
    <rect x="128" y="256" width="64" height="64" fill="#2a2a2a"/>
    <rect x="256" y="256" width="64" height="64" fill="#2a2a2a"/>
    <rect x="192" y="320" width="64" height="64" fill="#2a2a2a"/>
    <rect x="320" y="320" width="64" height="64" fill="#2a2a2a"/>
  </g>

  <!-- King piece (simplified) -->
  <g fill="#f0f0f0">
    <!-- Base -->
    <path d="M 220 380 L 220 360 L 180 340 L 180 330 L 332 330 L 332 340 L 292 360 L 292 380 Z"/>
    <!-- Body -->
    <ellipse cx="256" cy="310" rx="60" ry="70" />
    <!-- Cross on top -->
    <rect x="246" y="200" width="20" height="60" />
    <rect x="226" y="220" width="60" height="20" />
  </g>

  <!-- Fog effect -->
  <defs>
    <radialGradient id="fog">
      <stop offset="0%" stop-color="#50506480" />
      <stop offset="100%" stop-color="#0a0a0a00" />
    </radialGradient>
  </defs>
  <circle cx="400" cy="150" r="100" fill="url(#fog)" />
  <circle cx="120" cy="400" r="120" fill="url(#fog)" />
</svg>
